<mxfile host="app.diagrams.net" modified="2023-05-10T18:41:59.657Z" agent="Mozilla/5.0 (Macintosh; Intel Mac OS X 10_15_7) AppleWebKit/537.36 (KHTML, like Gecko) Chrome/108.0.0.0 Safari/537.36" etag="zGivI4itpuDuwh6WzwXt" version="21.1.4" type="device">
  <diagram name="Page-1" id="4PMVrwU7O7--RcBuMRTO">
    <mxGraphModel dx="984" dy="606" grid="1" gridSize="10" guides="1" tooltips="1" connect="1" arrows="1" fold="1" page="1" pageScale="1" pageWidth="850" pageHeight="1100" math="0" shadow="0">
      <root>
        <mxCell id="0" />
        <mxCell id="1" parent="0" />
        <mxCell id="x1HOqvgwTn4rWtFh7pfc-1" value="&lt;br&gt;&lt;br&gt;If color property is defined on the control level, it will be used.&lt;br&gt;&lt;br&gt;Otherwise, fallback to Control Theme level" style="rounded=0;whiteSpace=wrap;html=1;" vertex="1" parent="1">
          <mxGeometry x="80" y="80" width="220" height="160" as="geometry" />
        </mxCell>
        <mxCell id="x1HOqvgwTn4rWtFh7pfc-2" value="&lt;br&gt;&lt;br&gt;Flet will check for the nearest ancestor that has &amp;lt;Control&amp;gt;Theme defined, for example TabsTheme. If color is defined there,&amp;nbsp;it will be used.&lt;br&gt;&lt;br&gt;Otherwise, fallback to Theme level" style="rounded=0;whiteSpace=wrap;html=1;" vertex="1" parent="1">
          <mxGeometry x="330" y="160" width="220" height="160" as="geometry" />
        </mxCell>
        <mxCell id="x1HOqvgwTn4rWtFh7pfc-3" value="&lt;br&gt;&lt;br&gt;Flet will check for the nearest ancestor that has Theme defined and will use the color from the ColorScheme.&lt;br&gt;&lt;br&gt;By default, ColorScheme is defined for the page with seed_color &quot;blue&quot;" style="rounded=0;whiteSpace=wrap;html=1;" vertex="1" parent="1">
          <mxGeometry x="580" y="240" width="220" height="160" as="geometry" />
        </mxCell>
        <mxCell id="x1HOqvgwTn4rWtFh7pfc-4" value="" style="endArrow=classic;html=1;rounded=0;exitX=1;exitY=0.25;exitDx=0;exitDy=0;entryX=0.5;entryY=0;entryDx=0;entryDy=0;edgeStyle=orthogonalEdgeStyle;" edge="1" parent="1" source="x1HOqvgwTn4rWtFh7pfc-1" target="x1HOqvgwTn4rWtFh7pfc-7">
          <mxGeometry width="50" height="50" relative="1" as="geometry">
            <mxPoint x="400" y="250" as="sourcePoint" />
            <mxPoint x="450" y="200" as="targetPoint" />
          </mxGeometry>
        </mxCell>
        <mxCell id="x1HOqvgwTn4rWtFh7pfc-5" value="" style="endArrow=classic;html=1;rounded=0;exitX=1;exitY=0.25;exitDx=0;exitDy=0;entryX=0.473;entryY=-0.007;entryDx=0;entryDy=0;entryPerimeter=0;edgeStyle=orthogonalEdgeStyle;" edge="1" parent="1">
          <mxGeometry width="50" height="50" relative="1" as="geometry">
            <mxPoint x="550" y="196" as="sourcePoint" />
            <mxPoint x="684" y="240" as="targetPoint" />
          </mxGeometry>
        </mxCell>
        <mxCell id="x1HOqvgwTn4rWtFh7pfc-6" value="Control level" style="rounded=0;whiteSpace=wrap;html=1;fillColor=#d5e8d4;strokeColor=default;" vertex="1" parent="1">
          <mxGeometry x="80" y="80" width="220" height="30" as="geometry" />
        </mxCell>
        <mxCell id="x1HOqvgwTn4rWtFh7pfc-7" value="Control Theme level" style="rounded=0;whiteSpace=wrap;html=1;fillColor=#ffe6cc;strokeColor=default;" vertex="1" parent="1">
          <mxGeometry x="330" y="160" width="220" height="30" as="geometry" />
        </mxCell>
        <mxCell id="x1HOqvgwTn4rWtFh7pfc-8" value="Theme level" style="rounded=0;whiteSpace=wrap;html=1;fillColor=#dae8fc;strokeColor=default;" vertex="1" parent="1">
          <mxGeometry x="580" y="240" width="220" height="30" as="geometry" />
        </mxCell>
      </root>
    </mxGraphModel>
  </diagram>
</mxfile>
